<svg width="182" height="148" viewBox="0 0 182 148" fill="none" xmlns="http://www.w3.org/2000/svg">
<rect width="182" height="148" fill="#EEEDED"/>
<path d="M125 43.434L121.566 40L57 104.566L60.434 108L65.2911 103.143H115.286C116.573 103.141 117.808 102.629 118.718 101.718C119.629 100.808 120.141 99.5733 120.143 98.2857V48.2911L125 43.434ZM115.286 98.2857H70.1483L89.0741 79.3599L94.8517 85.1374C95.7626 86.048 96.9978 86.5595 98.2857 86.5595C99.5737 86.5595 100.809 86.048 101.72 85.1374L105.571 81.2857L115.286 90.9927V98.2857ZM115.286 84.1223L109.005 77.842C108.095 76.9314 106.859 76.4199 105.571 76.4199C104.283 76.4199 103.048 76.9314 102.137 77.842L98.2857 81.6937L92.513 75.921L115.286 53.1483V84.1223Z" fill="#C6C6C6"/>
<path d="M66.7146 88.5715V81.2857L78.8574 69.1502L82.1918 72.487L85.6307 69.0482L82.2914 65.7089C81.3806 64.7983 80.1454 64.2868 78.8574 64.2868C77.5695 64.2868 76.3343 64.7983 75.4234 65.7089L66.7146 74.4177V49.7143H105.572V44.8572H66.7146C65.4268 44.8585 64.1921 45.3706 63.2815 46.2812C62.3709 47.1918 61.8587 48.4265 61.8574 49.7143V88.5715H66.7146Z" fill="#C6C6C6"/>
</svg>
