<svg width="15" height="19" viewBox="0 0 15 19" fill="none" xmlns="http://www.w3.org/2000/svg">
<path d="M1 3.375V16.375C1 16.806 1.1712 17.2193 1.47595 17.524C1.7807 17.8288 2.19402 18 2.625 18H12.375C12.806 18 13.2193 17.8288 13.524 17.524C13.8288 17.2193 14 16.806 14 16.375V6.90288C14 6.68639 13.9567 6.4721 13.8727 6.27257C13.7887 6.07305 13.6657 5.89232 13.5109 5.741L9.90338 2.21312C9.59979 1.91628 9.19209 1.75005 8.7675 1.75H2.625C2.19402 1.75 1.7807 1.9212 1.47595 2.22595C1.1712 2.5307 1 2.94402 1 3.375V3.375Z" stroke="#3FB465" stroke-width="2" stroke-linecap="round" stroke-linejoin="round"/>
<path d="M5.0625 10.6875H9.9375" stroke="#3FB465" stroke-width="2" stroke-linecap="round" stroke-linejoin="round"/>
<path d="M5.0625 13.9375H7.5" stroke="#3FB465" stroke-width="2" stroke-linecap="round" stroke-linejoin="round"/>
<path d="M9.125 1.75V5C9.125 5.43098 9.29621 5.8443 9.60095 6.14905C9.9057 6.4538 10.319 6.625 10.75 6.625H14" stroke="#3FB465" stroke-width="2" stroke-linejoin="round"/>
</svg>
