<svg width="26" height="26" viewBox="0 0 26 26" fill="none" xmlns="http://www.w3.org/2000/svg">
<path d="M24.8055 13.0009L25.9462 10.0257C26.0713 9.6975 25.9738 9.32541 25.6992 9.1028L23.226 7.09769L22.7255 3.95028C22.6703 3.60255 22.3973 3.33119 22.0496 3.27595L18.902 2.77548L16.8985 0.300779C16.6775 0.0261735 16.2972 -0.0713198 15.9771 0.0537966L13.0002 1.19609L10.0249 0.0554214C9.69506 -0.0713198 9.3262 0.0294232 9.10358 0.302404L7.09839 2.77711L3.95086 3.27757C3.60474 3.33282 3.33175 3.6058 3.2765 3.9519L2.77602 7.09931L0.301214 9.10442C0.028222 9.32541 -0.0709001 9.6975 0.0542212 10.0257L1.19494 13.0009L0.0542212 15.9761C-0.072525 16.3043 0.028222 16.6764 0.301214 16.8974L2.77602 18.9009L3.2765 22.0483C3.33175 22.396 3.60312 22.669 3.95086 22.7242L7.09839 23.2247L9.10358 25.6978C9.3262 25.974 9.69831 26.0715 10.0266 25.9448L13.0002 24.8057L15.9755 25.9464C16.0697 25.9821 16.1672 26 16.2664 26C16.5052 26 16.7409 25.8944 16.8985 25.6978L18.902 23.2247L22.0496 22.7242C22.3973 22.669 22.6703 22.396 22.7255 22.0483L23.226 18.9009L25.6992 16.8974C25.9738 16.6748 26.0713 16.3043 25.9462 15.9761L24.8055 13.0009Z" fill="#3FB465"/>
<path d="M5.68797 10.5667C6.13655 10.5667 6.50062 10.2027 6.50062 9.75409C6.50062 9.30551 6.13655 8.94144 5.68797 8.94144H4.06266C3.61407 8.94144 3.25 9.30551 3.25 9.75409V16.2553C3.25 16.7039 3.61407 17.068 4.06266 17.068C4.51124 17.068 4.87531 16.7039 4.87531 16.2553V13.8174H5.68797C6.13655 13.8174 6.50062 13.4533 6.50062 13.0047C6.50062 12.5561 6.13655 12.1921 5.68797 12.1921H4.87531V10.5667H5.68797Z" fill="#FAFAFA"/>
<path d="M17.063 10.5665C17.5116 10.5665 17.8756 10.2024 17.8756 9.75382C17.8756 9.30523 17.5116 8.94116 17.063 8.94116H15.4377C14.9891 8.94116 14.625 9.30523 14.625 9.75382V16.2551C14.625 16.7036 14.9891 17.0677 15.4377 17.0677H17.063C17.5116 17.0677 17.8756 16.7036 17.8756 16.2551C17.8756 15.8065 17.5116 15.4424 17.063 15.4424H16.2503V13.8171H17.063C17.5116 13.8171 17.8756 13.453 17.8756 13.0044C17.8756 12.5559 17.5116 12.1918 17.063 12.1918H16.2503V10.5665H17.063Z" fill="#FAFAFA"/>
<path d="M21.9419 13.8171C22.3905 13.8171 22.7545 13.453 22.7545 13.0044C22.7545 12.5559 22.3905 12.1918 21.9419 12.1918H21.1292V10.5665H21.9419C22.3905 10.5665 22.7545 10.2024 22.7545 9.75382C22.7545 9.30523 22.3905 8.94116 21.9419 8.94116H20.3166C19.868 8.94116 19.5039 9.30523 19.5039 9.75382V16.2551C19.5039 16.7036 19.868 17.0677 20.3166 17.0677H21.9419C22.3905 17.0677 22.7545 16.7036 22.7545 16.2551C22.7545 15.8065 22.3905 15.4424 21.9419 15.4424H21.1292V13.8171H21.9419Z" fill="#FAFAFA"/>
<path d="M13.0009 11.3791C13.0009 10.035 11.9071 8.94116 10.563 8.94116H8.93766C8.48907 8.94116 8.125 9.30523 8.125 9.75382V16.2551C8.125 16.7036 8.48907 17.0677 8.93766 17.0677C9.38624 17.0677 9.75031 16.7036 9.75031 16.2551V14.3583L11.5382 16.7427C11.6974 16.9556 11.9412 17.0677 12.1883 17.0677C12.3573 17.0677 12.528 17.0157 12.6742 16.9052C13.0334 16.6354 13.1066 16.1267 12.8368 15.7675L11.2846 13.6952C12.2744 13.3864 13.0009 12.4713 13.0009 11.3791ZM10.563 12.1918H9.75031V10.5665H10.563C11.0116 10.5665 11.3756 10.9305 11.3756 11.3791C11.3756 11.8277 11.0116 12.1918 10.563 12.1918Z" fill="#FAFAFA"/>
</svg>
