<svg width="12" height="10" viewBox="0 0 12 10" fill="none" xmlns="http://www.w3.org/2000/svg">
<path d="M7.50189 7.31659H6.50948V4.0715C6.50948 4.01257 6.46127 3.96436 6.40234 3.96436H5.59877C5.53984 3.96436 5.49162 4.01257 5.49162 4.0715V7.31659H4.50189C4.41216 7.31659 4.36261 7.41971 4.41752 7.48936L5.91752 9.38712C5.92754 9.39993 5.94034 9.41029 5.95496 9.41741C5.96958 9.42453 5.98563 9.42823 6.00189 9.42823C6.01815 9.42823 6.0342 9.42453 6.04882 9.41741C6.06344 9.41029 6.07624 9.39993 6.08627 9.38712L7.58627 7.48936C7.64118 7.41971 7.59162 7.31659 7.50189 7.31659Z" fill="black"/>
<path d="M10.0098 2.7683C9.39643 1.15045 7.83348 0 6.00268 0C4.17188 0 2.60893 1.14911 1.99554 2.76696C0.847768 3.0683 0 4.11429 0 5.35714C0 6.83705 1.19866 8.03571 2.67723 8.03571H3.21429C3.27321 8.03571 3.32143 7.9875 3.32143 7.92857V7.125C3.32143 7.06607 3.27321 7.01786 3.21429 7.01786H2.67723C2.22589 7.01786 1.80134 6.83839 1.48527 6.51295C1.17054 6.18884 1.00312 5.75223 1.01786 5.29955C1.02991 4.94598 1.15045 4.61384 1.36875 4.33393C1.59241 4.04866 1.9058 3.84107 2.25402 3.74866L2.76161 3.61607L2.94777 3.12589C3.06295 2.82054 3.22366 2.53527 3.42589 2.27679C3.62554 2.02059 3.86204 1.79538 4.12768 1.60848C4.67813 1.22143 5.32634 1.01652 6.00268 1.01652C6.67902 1.01652 7.32723 1.22143 7.87768 1.60848C8.1442 1.79598 8.37991 2.02098 8.57946 2.27679C8.7817 2.53527 8.94241 2.82187 9.05759 3.12589L9.24241 3.61473L9.74866 3.74866C10.4746 3.9442 10.9821 4.60446 10.9821 5.35714C10.9821 5.80045 10.8094 6.2183 10.496 6.5317C10.3423 6.68629 10.1595 6.80885 9.95808 6.8923C9.75669 6.97576 9.54076 7.01843 9.32277 7.01786H8.78571C8.72679 7.01786 8.67857 7.06607 8.67857 7.125V7.92857C8.67857 7.9875 8.72679 8.03571 8.78571 8.03571H9.32277C10.8013 8.03571 12 6.83705 12 5.35714C12 4.11562 11.1549 3.07098 10.0098 2.7683Z" fill="black"/>
</svg>
