<svg width="16" height="17" viewBox="0 0 16 17" fill="none" xmlns="http://www.w3.org/2000/svg">
<path d="M8.20189 0.934761C8.20189 0.779763 8.14032 0.631114 8.03072 0.521514C7.92112 0.411914 7.77247 0.350342 7.61747 0.350342C7.46247 0.350342 7.31382 0.411914 7.20422 0.521514C7.09462 0.631114 7.03305 0.779763 7.03305 0.934761V1.90879C6.78643 1.99564 6.56248 2.13677 6.37772 2.32178L1.01743 7.68285C0.854624 7.84566 0.725478 8.03894 0.637367 8.25165C0.549256 8.46437 0.503906 8.69236 0.503906 8.9226C0.503906 9.15284 0.549256 9.38083 0.637367 9.59355C0.725478 9.80626 0.854624 9.99954 1.01743 10.1623L4.82005 13.9634C4.98286 14.1262 5.17613 14.2554 5.38885 14.3435C5.60157 14.4316 5.82956 14.4769 6.0598 14.4769C6.29004 14.4769 6.51803 14.4316 6.73075 14.3435C6.94346 14.2554 7.13674 14.1262 7.29955 13.9634L12.6598 8.60312C12.8226 8.44031 12.9518 8.24703 13.0399 8.03432C13.128 7.8216 13.1734 7.59361 13.1734 7.36337C13.1734 7.13313 13.128 6.90514 13.0399 6.69242C12.9518 6.47971 12.8226 6.28643 12.6598 6.12362L8.85644 2.32178C8.67191 2.13687 8.44823 1.99574 8.20189 1.90879V0.934761ZM7.03305 3.31919V4.44127C7.03305 4.59627 7.09462 4.74492 7.20422 4.85452C7.31382 4.96412 7.46247 5.02569 7.61747 5.02569C7.77247 5.02569 7.92112 4.96412 8.03072 4.85452C8.14032 4.74492 8.20189 4.59627 8.20189 4.44127V3.31919L11.8323 6.95038C11.9417 7.05996 12.0032 7.2085 12.0032 7.36337C12.0032 7.51824 11.9417 7.66678 11.8323 7.77636L11.0765 8.53221H1.82159L1.84419 8.50883L7.03305 3.31919Z" fill="#6633F5"/>
<path d="M14.063 9.78046C14.0049 9.67162 13.9183 9.5806 13.8125 9.51714C13.7067 9.45369 13.5856 9.42017 13.4622 9.42017C13.3388 9.42017 13.2177 9.45369 13.1119 9.51714C13.0061 9.5806 12.9195 9.67162 12.8614 9.78046L11.2967 12.715C10.4232 14.3498 11.6092 16.3244 13.4622 16.3244C15.3152 16.3244 16.4996 14.3498 15.6284 12.715L14.063 9.78046Z" fill="#6633F5"/>
</svg>
