<svg width="17" height="14" viewBox="0 0 17 14" fill="none" xmlns="http://www.w3.org/2000/svg">
<path d="M16.3929 0H0.607143C0.271317 0 0 0.284375 0 0.636364V3.81818H17V0.636364C17 0.284375 16.7287 0 16.3929 0ZM0 13.3636C0 13.7156 0.271317 14 0.607143 14H16.3929C16.7287 14 17 13.7156 17 13.3636V5.56818H0V13.3636ZM10.9855 9.70455C10.9855 9.61705 11.0538 9.54545 11.1373 9.54545H14.2679C14.3513 9.54545 14.4196 9.61705 14.4196 9.70455V11.1364C14.4196 11.2239 14.3513 11.2955 14.2679 11.2955H11.1373C11.0538 11.2955 10.9855 11.2239 10.9855 11.1364V9.70455Z" fill="white"/>
</svg>
