<svg width="24" height="24" viewBox="0 0 24 24" fill="none" xmlns="http://www.w3.org/2000/svg">
<path d="M22.3556 12.0919H18.3488V7.20703C18.3488 6.30234 17.6128 5.56641 16.7081 5.56641H13.2754V2.10914C13.2754 0.946172 12.3292 0 11.1662 0H7.18256C6.01959 0 5.07342 0.946172 5.07342 2.10914V5.56641H1.64063C0.735938 5.56641 0 6.30234 0 7.20703V22.3594C0 23.2641 0.735938 24 1.64063 24C13.1446 24 21.8296 23.9963 22.3556 23.9963C23.2603 23.9963 23.9963 23.2603 23.9963 22.3556V13.732C23.9963 12.8273 23.2603 12.0919 22.3556 12.0919ZM7.18256 1.40625H11.1662C11.5538 1.40625 11.8691 1.72158 11.8691 2.10914V5.56641H6.47967V2.10914C6.47967 1.72158 6.795 1.40625 7.18256 1.40625ZM1.64063 22.5938C1.51125 22.5938 1.40625 22.4888 1.40625 22.3594V7.20703C1.40625 7.07766 1.51125 6.97266 1.64063 6.97266H5.07342V9.04542C5.07342 9.43373 5.38824 9.74855 5.77655 9.74855C6.16486 9.74855 6.47967 9.43373 6.47967 9.04542V6.97266H11.8691V9.04542C11.8691 9.43373 12.1839 9.74855 12.5723 9.74855C12.9606 9.74855 13.2754 9.43373 13.2754 9.04542V6.97266H16.7081C16.8375 6.97266 16.9425 7.07766 16.9425 7.20703V12.0919H10.1156C9.21094 12.0919 8.475 12.8273 8.475 13.732V22.3556C8.475 22.4367 8.4811 22.5159 8.49234 22.5938H1.64063ZM22.59 22.3556C22.59 22.4845 22.485 22.59 22.3556 22.59C21.9663 22.59 10.6801 22.59 10.1156 22.59C9.98672 22.59 9.88125 22.4845 9.88125 22.3556V13.732C9.88125 13.6031 9.98672 13.4981 10.1156 13.4981H22.3556C22.485 13.4981 22.59 13.6031 22.59 13.732V22.3556Z" fill="#2A2A2A"/>
<path d="M19.376 15.1378C18.9879 15.1378 18.6729 15.4528 18.6729 15.8409V17.9269C18.6729 18.1748 18.5435 18.3928 18.349 18.518C18.1121 18.6715 18.2753 18.6295 14.502 18.6295C14.1143 18.6295 13.7988 18.3141 13.7988 17.9269V15.8409C13.7988 15.4528 13.4843 15.1378 13.0957 15.1378C12.7076 15.1378 12.3926 15.4528 12.3926 15.8409V17.9269C12.3926 19.0898 13.339 20.0358 14.502 20.0358C18.3048 20.0358 18.0909 20.0487 18.349 20.0016C19.332 19.8225 20.0791 18.9605 20.0791 17.9269V15.8409C20.0791 15.4528 19.7641 15.1378 19.376 15.1378Z" fill="#2A2A2A"/>
</svg>
