<svg width="20" height="22" viewBox="0 0 20 22" fill="none" xmlns="http://www.w3.org/2000/svg">
<path d="M1.67982 12.3945L8.75276 20.9327C9.37164 21.6442 10.0937 22 10.9189 22C11.6556 22 12.2892 21.7777 12.8197 21.3329L18.9643 16.1299C19.5537 15.5963 19.8926 14.9293 19.9811 14.1288C20.0695 13.3876 19.8484 12.6613 19.318 11.9498L12.245 3.41149C11.4788 2.4035 10.4768 1.7661 9.23903 1.49928L3.09441 0.0762345C2.505 -0.101646 1.94506 0.0317644 1.41459 0.476465L0.663088 1.14352C0.221029 1.46963 0 2.00327 0 2.74444L0.353647 9.10367C0.501 10.3785 0.943059 11.4754 1.67982 12.3945ZM2.74076 1.89951L8.97379 3.41149C9.62215 3.55973 10.2705 3.95996 10.9189 4.61219L17.9918 13.1504C18.2276 13.3876 18.3012 13.6544 18.2128 13.9509C18.2128 14.1288 18.0802 14.3808 17.815 14.7069L11.6704 19.9099C11.4641 20.0878 11.2136 20.1693 10.9189 20.1545C10.6241 20.1397 10.4031 20.0285 10.2558 19.821L3.18282 11.2827C2.62288 10.5712 2.34291 9.84484 2.34291 9.10367L1.90085 2.56656L2.74076 1.89951ZM5.2605 5.01242C5.2605 5.27924 5.17209 5.50159 4.99526 5.67947C4.81844 5.85735 4.59741 5.94629 4.33218 5.94629C4.06694 5.94629 3.84591 5.85735 3.66909 5.67947C3.49226 5.50159 3.40385 5.27924 3.40385 5.01242C3.40385 4.7456 3.49226 4.52325 3.66909 4.34537C3.84591 4.16748 4.06694 4.07854 4.33218 4.07854C4.59741 4.07854 4.81844 4.16748 4.99526 4.34537C5.17209 4.52325 5.2605 4.7456 5.2605 5.01242ZM5.74676 11.6385L14.4111 14.3956H14.7206C15.1331 14.3956 15.4426 14.1733 15.6489 13.7286C15.7373 13.4914 15.7226 13.2542 15.6047 13.017C15.4868 12.7799 15.31 12.6168 15.0742 12.5279L6.40985 9.77072C6.17409 9.65213 5.93095 9.65213 5.68045 9.77072C5.42996 9.88931 5.2605 10.0672 5.17209 10.3044C4.99526 10.9862 5.18682 11.4309 5.74676 11.6385ZM12.8197 15.9076C12.8197 16.293 12.6871 16.6265 12.4219 16.9082C12.1566 17.1898 11.8177 17.3306 11.4051 17.3306C10.9925 17.3306 10.6536 17.1898 10.3884 16.9082C10.1231 16.6265 9.99053 16.293 9.99053 15.9076C9.99053 15.5222 10.1305 15.1887 10.4105 14.907C10.6905 14.6254 11.022 14.4846 11.4051 14.4846C11.7882 14.4846 12.1198 14.6254 12.3997 14.907C12.6797 15.1887 12.8197 15.5222 12.8197 15.9076ZM9.99053 8.34768C9.99053 8.73308 9.85054 9.06661 9.57057 9.34825C9.2906 9.6299 8.95906 9.77072 8.57594 9.77072C8.19282 9.77072 7.86128 9.6299 7.58131 9.34825C7.30134 9.06661 7.16135 8.73308 7.16135 8.34768C7.16135 7.96227 7.29397 7.62874 7.5592 7.3471C7.82444 7.06545 8.16335 6.92463 8.57594 6.92463C8.98853 6.92463 9.32744 7.06545 9.59267 7.3471C9.85791 7.62874 9.99053 7.96227 9.99053 8.34768Z" fill="#777777"/>
</svg>
