<svg width="20" height="21" viewBox="0 0 20 21" fill="none" xmlns="http://www.w3.org/2000/svg">
<path d="M19.5286 10.7572C19.3906 10.7073 19.2406 10.7012 19.099 10.7395C18.9575 10.7778 18.8311 10.8588 18.7371 10.9715L16.0429 14.2044L12.16 13.4986L9.58714 7.10436C9.43275 6.69692 9.15837 6.34591 8.80025 6.09773C8.44213 5.84954 8.01714 5.71586 7.58143 5.71436H4.68143C4.2929 5.71446 3.91171 5.82013 3.57857 6.02007L0 8.16721V12.7386L3.57143 13.3886V20.7144H5V13.6479L7.54643 14.1108L8.57143 16.5715V20.7144H10V16.2858L9.22071 14.4158L14.9929 15.4651L11.5943 19.5429C11.5074 19.6472 11.4521 19.7741 11.4347 19.9087C11.4173 20.0433 11.4387 20.1801 11.4963 20.303C11.5538 20.4259 11.6452 20.5299 11.7597 20.6027C11.8742 20.6756 12.0071 20.7143 12.1429 20.7144H19.2857C19.4752 20.7144 19.6568 20.6391 19.7908 20.5051C19.9247 20.3712 20 20.1895 20 20.0001V11.4286C19.9999 11.2818 19.9546 11.1386 19.8703 11.0185C19.7859 10.8984 19.6666 10.8071 19.5286 10.7572ZM1.42857 11.5472V8.97578L3.57143 7.69007V11.9365L1.42857 11.5472ZM5 12.1965V7.14293H7.58143C7.72935 7.14422 7.87332 7.19078 7.994 7.27633C8.11467 7.36189 8.20625 7.48234 8.25643 7.6215L10.4993 13.1965L5 12.1965ZM18.5714 19.2858H13.6679L18.5714 13.4015V19.2858Z" fill="#777777"/>
<path d="M7.5 5C7.00555 5 6.5222 4.85338 6.11108 4.57868C5.69995 4.30397 5.37952 3.91353 5.1903 3.45671C5.00108 2.99989 4.95157 2.49723 5.04804 2.01228C5.1445 1.52732 5.3826 1.08187 5.73223 0.732234C6.08187 0.382603 6.52732 0.144501 7.01228 0.0480379C7.49723 -0.0484251 7.99989 0.00108321 8.45671 0.190302C8.91353 0.379521 9.30397 0.699953 9.57868 1.11108C9.85338 1.5222 10 2.00555 10 2.5C9.99925 3.16281 9.73561 3.79826 9.26693 4.26693C8.79826 4.73561 8.16281 4.99925 7.5 5ZM7.5 1.42857C7.28809 1.42857 7.08094 1.49141 6.90475 1.60914C6.72855 1.72687 6.59122 1.89421 6.51013 2.08998C6.42904 2.28576 6.40782 2.50119 6.44916 2.70903C6.4905 2.91686 6.59254 3.10777 6.74239 3.25762C6.89223 3.40746 7.08314 3.5095 7.29098 3.55084C7.49881 3.59218 7.71424 3.57097 7.91002 3.48987C8.1058 3.40878 8.27313 3.27145 8.39086 3.09525C8.50859 2.91906 8.57143 2.71191 8.57143 2.5C8.57105 2.21596 8.45805 1.94365 8.2572 1.7428C8.05635 1.54195 7.78405 1.42895 7.5 1.42857Z" fill="#777777"/>
</svg>
