<svg width="17" height="17" viewBox="0 0 17 17" fill="none" xmlns="http://www.w3.org/2000/svg">
<path d="M11.8169 0.00066338C8.95442 0.00066338 6.63389 1.28034 6.63389 2.8612C6.63389 4.44205 8.95508 5.72239 11.8169 5.72239C14.6795 5.72239 17 4.44205 17 2.8612C17 1.28034 14.6788 0 11.8169 0V0.00066338ZM17 3.711C16.9987 5.29185 14.6795 6.57219 11.8169 6.57219C8.96238 6.57219 6.64716 5.30578 6.63389 3.73223V4.85136C6.63389 5.52669 7.06642 6.14497 7.77492 6.63455C8.49138 6.82959 9.12956 7.10025 9.66093 7.44256C10.3197 7.60973 11.0441 7.71189 11.8169 7.71189C14.6795 7.71189 17 6.43222 17 4.85136V3.711ZM17 5.70116C17 7.28202 14.6795 8.56236 11.8169 8.56236C11.4687 8.56236 11.1303 8.53649 10.8013 8.5C11.0609 8.84969 11.2381 9.25361 11.3194 9.6815C11.4846 9.69078 11.6478 9.70206 11.8169 9.70206C14.6795 9.70206 17 8.42238 17 6.84153V5.70116ZM5.18306 7.29728C2.32053 7.29728 0 8.57762 0 10.1585C0 11.7393 2.3212 13.0197 5.18306 13.0197C8.04558 13.0197 10.3661 11.7393 10.3661 10.1585C10.3661 8.57762 8.04492 7.29728 5.18306 7.29728ZM17 7.69133C16.9987 9.27219 14.6795 10.5525 11.8169 10.5525C11.6504 10.5525 11.4819 10.5406 11.3194 10.5313C11.3121 10.5811 11.3081 10.6474 11.2988 10.6971C11.332 10.7973 11.3605 10.8962 11.3605 11.0089V11.6723C11.5111 11.6796 11.6624 11.6922 11.8169 11.6922C14.6795 11.6922 17 10.4125 17 8.83169V7.69133ZM17 9.6815C16.9987 11.2624 14.6795 12.5427 11.8169 12.5427C11.6504 12.5427 11.4819 12.5308 11.3194 12.5215C11.3121 12.5712 11.3081 12.6376 11.2988 12.6873C11.332 12.7868 11.3605 12.8863 11.3605 12.9991V13.6625C11.5111 13.6698 11.6624 13.6824 11.8169 13.6824C14.6795 13.6824 17 12.4027 17 10.8219V9.6815ZM10.3661 11.0083C10.3648 12.5891 8.04558 13.8695 5.18306 13.8695C2.32849 13.8695 0.0132678 12.6031 0 11.0288V12.1486C0 13.7295 2.31987 15.0098 5.18306 15.0098C8.04624 15.0098 10.3661 13.7295 10.3661 12.1486V11.0083ZM10.3661 12.9984C10.3648 14.5793 8.04558 15.8596 5.18306 15.8596C2.32849 15.8596 0.0132678 14.5932 0 13.019V14.1388C0 15.7197 2.31987 17 5.18306 17C8.04624 17 10.3661 15.7197 10.3661 14.1388V12.9984Z" fill="white"/>
</svg>
