<svg width="15" height="14" viewBox="0 0 15 14" fill="none" xmlns="http://www.w3.org/2000/svg">
<path d="M10.5831 1.03038L10.5823 1.03038C10.0408 1.03127 9.50723 1.16125 9.02666 1.4096C8.54616 1.6579 8.13254 2.01734 7.82101 2.45796C7.82094 2.45806 7.82087 2.45815 7.82081 2.45825L7.34672 3.12668L6.87209 2.45709C6.87207 2.45706 6.87205 2.45703 6.87202 2.457C6.56016 2.01685 6.14647 1.6578 5.66609 1.40971C5.18569 1.1616 4.65244 1.03159 4.11118 1.03038H4.11007C2.25165 1.03038 0.733143 2.52839 0.733143 4.38094C0.733143 6.23809 1.83778 7.95026 3.12561 9.33987C4.42564 10.7426 5.98988 11.8991 7.06043 12.6464L7.3466 12.8461L7.63278 12.6464C8.70333 11.8991 10.2676 10.7426 11.5676 9.33987C12.8554 7.95026 13.9601 6.23809 13.9601 4.38094C13.9601 2.52839 12.4416 1.03038 10.5831 1.03038ZM10.5831 0.961426H10.5831C11.0376 0.961426 11.4875 1.05012 11.9071 1.22234L12.097 0.759781L11.9071 1.22234C12.3267 1.39455 12.7077 1.64685 13.0284 1.9646C13.3491 2.28234 13.6032 2.65931 13.7765 3.07386C13.9498 3.48839 14.0389 3.93252 14.0389 4.38094C14.0389 6.22759 12.9757 7.96805 11.5239 9.4997C10.1853 10.9119 8.57544 12.0849 7.3466 12.932C6.11777 12.0849 4.50794 10.9119 3.16934 9.4997C1.7175 7.96805 0.654297 6.22759 0.654297 4.38094C0.654297 3.47552 1.01726 2.60625 1.66484 1.9646C2.31257 1.3228 3.19206 0.961426 4.11007 0.961426H4.11014C4.6658 0.961345 5.21308 1.09413 5.70546 1.34825C6.19783 1.60237 6.62056 1.9702 6.93809 2.42014L7.3466 2.99903L7.75512 2.42014C8.07265 1.9702 8.49538 1.60237 8.98775 1.34825C9.48013 1.09413 10.0274 0.961345 10.5831 0.961426Z" stroke="#717071"/>
</svg>
