<svg width="22" height="19" viewBox="0 0 22 19" fill="none" xmlns="http://www.w3.org/2000/svg">
<path d="M1.58936 3.42876L5.88549 6.18822L10.1673 0.413067C10.2619 0.285313 10.3868 0.181179 10.5317 0.109331C10.6765 0.0374835 10.837 0 10.9999 0C11.1628 0 11.3234 0.0374835 11.4682 0.109331C11.613 0.181179 11.7379 0.285313 11.8326 0.413067L16.1144 6.18822L20.4105 3.42876C20.5731 3.32454 20.7633 3.26734 20.9585 3.26392C21.1538 3.2605 21.346 3.31101 21.5124 3.40947C21.6788 3.50793 21.8125 3.65023 21.8976 3.81956C21.9828 3.98888 22.0159 4.17815 21.9929 4.36501L20.3123 18.1298C20.283 18.3695 20.1634 18.5905 19.9762 18.7509C19.7889 18.9113 19.5471 19 19.2966 19H2.70328C2.45274 19 2.21093 18.9113 2.0237 18.7509C1.83648 18.5905 1.71687 18.3695 1.68755 18.1298L0.00694712 4.36402C-0.015761 4.17725 0.0174677 3.98811 0.102711 3.81895C0.187954 3.64978 0.321652 3.50764 0.488023 3.40931C0.654394 3.31098 0.846492 3.26056 1.04164 3.26401C1.23679 3.26745 1.42684 3.32462 1.58936 3.42876ZM10.9999 13.0869C11.5425 13.0869 12.0629 12.8792 12.4465 12.5096C12.8302 12.1399 13.0457 11.6386 13.0457 11.1158C13.0457 10.5931 12.8302 10.0917 12.4465 9.72209C12.0629 9.35245 11.5425 9.14479 10.9999 9.14479C10.4574 9.14479 9.93701 9.35245 9.55335 9.72209C9.16969 10.0917 8.95416 10.5931 8.95416 11.1158C8.95416 11.6386 9.16969 12.1399 9.55335 12.5096C9.93701 12.8792 10.4574 13.0869 10.9999 13.0869Z" fill="#F50000"/>
</svg>
