<svg width="16" height="18" viewBox="0 0 16 18" fill="none" xmlns="http://www.w3.org/2000/svg">
<path fill-rule="evenodd" clip-rule="evenodd" d="M10.7811 0.968714C10.7811 0.792056 10.7264 0.619732 10.6246 0.475353C10.5228 0.330975 10.3789 0.221608 10.2125 0.16224C10.0461 0.102871 9.86545 0.0964054 9.69525 0.143729C9.52505 0.191053 9.37365 0.289851 9.26179 0.426584L0.697334 9.84749C0.594729 9.97297 0.529841 10.125 0.510211 10.2859C0.49058 10.4468 0.517013 10.61 0.586437 10.7564C0.655861 10.9029 0.765426 11.0267 0.902399 11.1133C1.03937 11.2 1.19813 11.246 1.36022 11.2461H5.64245V16.3847C5.64248 16.5614 5.69714 16.7337 5.79894 16.8781C5.90074 17.0225 6.04469 17.1318 6.21107 17.1912C6.37746 17.2506 6.55813 17.257 6.72833 17.2097C6.89853 17.1624 7.04993 17.0636 7.16179 16.9269L15.7262 7.50596C15.8288 7.38048 15.8937 7.22845 15.9134 7.06755C15.933 6.90666 15.9066 6.74349 15.8371 6.59702C15.7677 6.45054 15.6582 6.32678 15.5212 6.24011C15.3842 6.15343 15.2254 6.10741 15.0634 6.10739H10.7811V0.968714Z" fill="#FF6B00"/>
</svg>
