<svg width="75" height="13" viewBox="0 0 75 13" fill="none" xmlns="http://www.w3.org/2000/svg">
<path d="M19.9743 2.11978V0H14.4549H11.6553V2.11978V5.07938V7.19909V10.2387V12.3985H19.9743V10.2387H14.4549V7.19909H19.1344V5.07938H14.4549V2.11978H19.9743Z" fill="#0C0C0C"/>
<path d="M30.3746 2.11978V0H24.8553H22.0557V2.11978V5.07938V7.19909V10.2387V12.3985H30.3746V10.2387H24.8553V7.19909H29.5347V5.07938H24.8553V2.11978H30.3746Z" fill="#0C0C0C"/>
<path d="M50.2517 0H40.8525V2.11978H44.4126V12.3985H46.9319V2.11978H50.2517V0Z" fill="#0C0C0C"/>
<path d="M9.55801 0H0.199219V2.11978H3.71878V12.3985H6.23848V2.11978H9.55801V0Z" fill="#0C0C0C"/>
<path d="M41.8931 12.3985V9.87876H34.9741V0H32.4541V12.3985H41.8931Z" fill="#0C0C0C"/>
<path d="M59.8506 12.3985H62.0106L57.0113 0H54.8513H54.5718L49.6523 12.3985H52.0918L53.0919 9.87876H58.8512L59.8506 12.3985ZM53.8119 8.07898L55.9712 2.67966L58.1312 8.07898H53.8119Z" fill="#0C0C0C"/>
<path d="M72.4082 0V8.55896L66.5292 0H64.0498V12.4784H66.5292V3.79951L72.4082 12.4784H74.9282V0H72.4082Z" fill="#0C0C0C"/>
</svg>
