<svg width="31" height="18" viewBox="0 0 31 18" fill="none" xmlns="http://www.w3.org/2000/svg">
<path d="M29.4417 3.27725H14.2853L14.06 0.734453C14.0231 0.318623 13.6792 0 13.2671 0H11.6496C11.2099 0 10.8535 0.361101 10.8535 0.806543C10.8535 1.25198 11.2099 1.61309 11.6496 1.61309H12.5393C13.0254 7.10073 11.7689 -7.08279 13.4549 11.9479C13.5199 12.6928 13.9171 13.5011 14.6014 14.0503C13.3676 15.6466 14.495 18 16.502 18C18.1678 18 19.3427 16.3168 18.7715 14.7226H23.1286C22.558 16.3147 23.7304 18 25.398 18C26.7289 18 27.8116 16.9031 27.8116 15.5548C27.8116 14.2064 26.7289 13.1095 25.398 13.1095H16.5074C15.9026 13.1095 15.3757 12.7399 15.1482 12.2013L27.8708 11.4438C28.2181 11.4231 28.512 11.1763 28.5964 10.8343L30.214 4.2794C30.3394 3.77113 29.9597 3.27725 29.4417 3.27725ZM16.502 16.3869C16.0491 16.3869 15.6806 16.0136 15.6806 15.5548C15.6806 15.0959 16.0491 14.7226 16.502 14.7226C16.9549 14.7226 17.3234 15.0959 17.3234 15.5548C17.3234 16.0136 16.9549 16.3869 16.502 16.3869ZM25.398 16.3869C24.9451 16.3869 24.5766 16.0136 24.5766 15.5548C24.5766 15.0959 24.9451 14.7226 25.398 14.7226C25.8509 14.7226 26.2194 15.0959 26.2194 15.5548C26.2194 16.0136 25.8509 16.3869 25.398 16.3869ZM27.1936 9.86828L14.9339 10.5982L14.4282 4.8903H28.4221L27.1936 9.86828Z" fill="white"/>
<path d="M10.509 8.05168C10.6904 8.02447 10.8535 8.16495 10.8535 8.34836V10.6516C10.8535 10.8351 10.6904 10.9755 10.509 10.9483L2.83139 9.79668C2.49072 9.74558 2.49072 9.25442 2.83139 9.20332L10.509 8.05168Z" fill="white"/>
<path d="M10.5111 5.04892C10.6918 5.0231 10.8535 5.16334 10.8535 5.3459V6.6541C10.8535 6.83666 10.6918 6.9769 10.5111 6.95108L5.93241 6.29698C5.58898 6.24792 5.58898 5.75208 5.93241 5.70302L10.5111 5.04892Z" fill="white"/>
<path d="M10.5111 12.0489C10.6918 12.0231 10.8535 12.1633 10.8535 12.3459V13.6541C10.8535 13.8367 10.6918 13.9769 10.5111 13.9511L5.93241 13.297C5.58898 13.2479 5.58898 12.7521 5.93241 12.703L10.5111 12.0489Z" fill="white"/>
</svg>
