<svg width="48" height="48" viewBox="0 0 48 48" fill="none" xmlns="http://www.w3.org/2000/svg">
<path d="M47.5518 43.6628L43.6941 39.8051C46.0345 39.6674 47.8965 37.7205 47.8965 35.3462V10.9533C47.8965 8.49005 45.8924 6.48587 43.4291 6.48587H10.3748L4.29879 0.409818C3.75246 -0.136606 2.8665 -0.136606 2.32008 0.409818C1.77365 0.956243 1.77365 1.84211 2.32008 2.38853L6.41752 6.48597H4.51044C2.04705 6.48597 0.0429688 8.49005 0.0429688 10.9534V35.3463C0.0429688 37.8096 2.04705 39.8138 4.51044 39.8138H11.2422V45.4701C11.2422 46.4715 11.8081 47.3519 12.719 47.7677C13.0608 47.9237 13.4201 48.0001 13.7757 48.0001C14.3679 48.0001 14.9497 47.788 15.4223 47.3781L24.1443 39.8138H39.7451L45.5731 45.6417C45.8463 45.9149 46.2044 46.0516 46.5624 46.0516C46.9204 46.0516 47.2786 45.9149 47.5517 45.6417C48.0982 45.0952 48.0982 44.2091 47.5518 43.6628ZM22.7055 37.3574L14.0405 44.8721V38.4144C14.0405 37.6417 13.414 37.0152 12.6413 37.0152H4.51044C3.59006 37.0152 2.84132 36.2665 2.84132 35.3461V10.9533C2.84132 10.0331 3.59006 9.28422 4.51044 9.28422H9.21587L36.9469 37.0152H23.6221C23.2853 37.0152 22.9599 37.1368 22.7055 37.3574ZM45.0982 10.9533V35.3462C45.0982 36.2665 44.3494 37.0153 43.4291 37.0153H40.9042L13.1732 9.28422H43.4291C44.3494 9.28422 45.0982 10.0331 45.0982 10.9533Z" fill="#C6C6C6"/>
</svg>
