<svg width="11" height="8" viewBox="0 0 11 8" fill="none" xmlns="http://www.w3.org/2000/svg">
<path d="M0.1498 3.42321L3.42322 0.14979C3.62294 -0.0499299 3.94684 -0.0499299 4.14656 0.14979C4.34632 0.34955 4.34632 0.673373 4.14656 0.873134L1.74629 3.27341H10.4885C10.771 3.27341 11 3.50243 11 3.78488C11 4.0673 10.771 4.29635 10.4885 4.29635H1.74629L4.14648 6.69663C4.34624 6.89639 4.34624 7.22021 4.14648 7.41997C4.04664 7.51977 3.91571 7.56977 3.78481 7.56977C3.65391 7.56977 3.52302 7.51977 3.42314 7.41997L0.1498 4.14655C-0.0499601 3.94679 -0.0499601 3.62297 0.1498 3.42321Z" fill="white"/>
</svg>
