<svg width="17" height="17" viewBox="0 0 17 17" fill="none" xmlns="http://www.w3.org/2000/svg">
<path d="M11.3239 12.0618L12.7799 10.6058C12.976 10.4122 13.2242 10.2796 13.4942 10.2242C13.7642 10.1688 14.0444 10.193 14.3009 10.2938L16.0754 11.0023C16.3347 11.1076 16.5569 11.2872 16.7143 11.5185C16.8716 11.7498 16.9569 12.0226 16.9594 12.3023V15.5523C16.9579 15.7426 16.9179 15.9307 16.8418 16.1051C16.7657 16.2795 16.6551 16.4368 16.5167 16.5673C16.3782 16.6979 16.2148 16.7991 16.0362 16.8648C15.8576 16.9306 15.6675 16.9595 15.4774 16.9498C3.04294 16.1763 0.533938 5.64633 0.0594376 1.61633C0.037411 1.41843 0.0575361 1.21811 0.118489 1.02854C0.179442 0.838978 0.279841 0.664466 0.413081 0.51649C0.546322 0.368513 0.709384 0.250424 0.89154 0.169993C1.0737 0.0895611 1.27082 0.0486092 1.46994 0.0498313H4.60944C4.88959 0.0506605 5.1631 0.135285 5.39476 0.29282C5.62643 0.450356 5.80568 0.673597 5.90944 0.933831L6.61794 2.70833C6.7221 2.96383 6.74868 3.24435 6.69434 3.51486C6.64001 3.78537 6.50718 4.03387 6.31244 4.22933L4.85644 5.68533C4.85644 5.68533 5.69494 11.3598 11.3239 12.0618Z" fill="white"/>
</svg>
