<svg width="20" height="20" viewBox="0 0 20 20" fill="none" xmlns="http://www.w3.org/2000/svg">
<path d="M7.91398 0C10.0129 0 12.0258 0.833817 13.51 2.31802C14.9942 3.80222 15.828 5.81524 15.828 7.91422C15.828 9.64868 15.2698 11.2524 14.3243 12.5569L19.6275 17.8603C19.8568 18.0863 19.99 18.392 19.9995 18.7138C20.0089 19.0356 19.8938 19.3486 19.6781 19.5876C19.4624 19.8266 19.1628 19.9731 18.8418 19.9967C18.5207 20.0202 18.2029 19.9189 17.9547 19.7139L17.8598 19.6281L12.5566 14.3247C11.2072 15.3047 9.58164 15.8312 7.91398 15.8284C5.81506 15.8284 3.80211 14.9946 2.31795 13.5104C0.833791 12.0262 0 10.0132 0 7.91422C0 5.81524 0.833791 3.80222 2.31795 2.31802C3.80211 0.833817 5.81506 3.12773e-08 7.91398 0ZM7.91398 2.49923C6.47787 2.49923 5.10059 3.06973 4.08512 4.08524C3.06964 5.10075 2.49915 6.47807 2.49915 7.91422C2.49915 9.35036 3.06964 10.7277 4.08512 11.7432C5.10059 12.7587 6.47787 13.3292 7.91398 13.3292C9.35008 13.3292 10.7274 12.7587 11.7428 11.7432C12.7583 10.7277 13.3288 9.35036 13.3288 7.91422C13.3288 6.47807 12.7583 5.10075 11.7428 4.08524C10.7274 3.06973 9.35008 2.49923 7.91398 2.49923Z" fill="white"/>
</svg>
